<?xml version="1.0" encoding="UTF-8"?>
<!DOCTYPE svg PUBLIC "-//W3C//DTD SVG 1.1//EN" "http://www.w3.org/Graphics/SVG/1.1/DTD/svg11.dtd">
<!-- Creator: CorelDRAW 2018 (64-Bit) -->
<svg xmlns="http://www.w3.org/2000/svg" xml:space="preserve" width="90.9238mm" height="11.8877mm" version="1.1" style="shape-rendering:geometricPrecision; text-rendering:geometricPrecision; image-rendering:optimizeQuality; fill-rule:evenodd; clip-rule:evenodd"
viewBox="0 0 9092.38 1188.77"
 xmlns:xlink="http://www.w3.org/1999/xlink">
 <defs>
  <style type="text/css">
   <![CDATA[
    .fil2 {fill:#424090}
    .fil1 {fill:#424090;fill-rule:nonzero}
    .fil0 {fill:#424090;fill-rule:nonzero}
   ]]>
  </style>
 </defs>
 <g id="Layer_x0020_1">
  <metadata id="CorelCorpID_0Corel-Layer"/>
  <g id="_2031432768">
   <path class="fil0" d="M5491.28 28.08l70.21 0c16.18,0 29,4.79 38.46,14.37 9.46,9.59 14.19,22.47 14.19,38.65l0 97.47c0,16.18 -4.73,29.07 -14.19,38.65 -9.46,9.59 -22.28,14.38 -38.46,14.38l-70.21 0 0 46.68 -36.22 0 0 -46.68 -70.21 0c-16.18,0 -29,-4.79 -38.47,-14.38 -9.46,-9.58 -14.19,-22.47 -14.19,-38.65l0 -97.47c0,-16.18 4.73,-29.06 14.19,-38.65 9.47,-9.58 22.29,-14.37 38.47,-14.37l70.21 0 0 -18.68 36.22 0 0 18.68zm-101.95 169.16l65.73 0 0 -134.81 -65.73 0c-6.72,0 -11.89,1.87 -15.5,5.6 -3.61,3.74 -5.41,8.84 -5.41,15.31l0 92.99c0,6.47 1.8,11.58 5.41,15.31 3.61,3.74 8.78,5.6 15.5,5.6zm188.59 -20.91l0 -92.99c0,-6.47 -1.81,-11.57 -5.42,-15.31 -3.61,-3.73 -8.77,-5.6 -15.5,-5.6l-65.72 0 0 134.81 65.72 0c6.73,0 11.89,-1.86 15.5,-5.6 3.61,-3.73 5.42,-8.84 5.42,-15.31z"/>
   <path id="1" class="fil0" d="M5889.36 278.28l-40.7 0 -28.38 -66.85 -118.76 0 -28 66.85 -40.34 0 108.3 -250.2 39.21 0 108.67 250.2zm-128.83 -206.89l-44.07 104.94 88.88 0 -44.81 -104.94z"/>
   <path id="2" class="fil0" d="M6087.66 131.89l1.5 0c31.12,0 46.68,15.31 46.68,45.93l0 100.46 -36.23 0 0 -94.48c0,-11.45 -5.97,-17.18 -17.92,-17.18l-117.64 0 0 111.66 -36.22 0 0 -250.2 36.22 0 0 103.81 84.77 0 51.91 -103.81 39.96 0 -53.03 103.81z"/>
   <path id="3" class="fil0" d="M6297.91 181.56l67.97 -154.61 37.72 0 -95.61 215.11c-5.22,11.7 -12.75,20.66 -22.59,26.88 -9.83,6.23 -20.85,9.34 -33.05,9.34l-42.2 0 0 -35.85 42.2 0c12.7,0 21.41,-5.35 26.14,-16.06l1.5 -3.73 -105.69 -194.56 41.46 0 82.15 153.48z"/>
   <path id="4" class="fil0" d="M6644.1 28.08l0 250.2 -36.23 0 0 -214.73 -117.63 0c0,84.65 -2.62,139.17 -7.84,163.57 -2,9.46 -4.98,17.55 -8.97,24.27 -3.98,6.72 -8.03,11.77 -12.13,15.13 -4.11,3.36 -9.09,5.97 -14.94,7.84 -5.85,1.87 -10.64,2.99 -14.38,3.36 -3.73,0.37 -8.21,0.56 -13.44,0.56l-12.7 0 0 -35.85 6.35 0c4.23,0 7.41,-0.06 9.52,-0.19 2.12,-0.12 4.79,-0.62 8.03,-1.49 3.24,-0.87 5.73,-2.12 7.47,-3.74 1.74,-1.61 3.49,-4.04 5.23,-7.28 1.74,-3.23 3.23,-7.22 4.48,-11.95 1.24,-4.73 2.3,-10.83 3.17,-18.3 0.87,-7.46 1.56,-16.18 2.06,-26.14 0.5,-9.96 0.87,-19.42 1.12,-28.38 0.25,-8.96 0.43,-19.79 0.56,-32.49 0.12,-12.69 0.18,-22.78 0.18,-30.25 0,-7.46 0,-17.42 0,-29.87 0,-12.45 0,-20.54 0,-24.27l190.09 0z"/>
   <path id="5" class="fil0" d="M6747.54 116.95l78.05 0c24.4,0 44.69,7.53 60.87,22.6 16.19,15.06 24.28,34.29 24.28,57.69 0,23.16 -8.09,42.45 -24.28,57.89 -16.18,15.43 -36.47,23.15 -60.87,23.15l-114.27 0 0 -250.2 36.22 0 0 88.87zm0 125.85l76.93 0c14.44,0 26.33,-4.29 35.67,-12.88 9.33,-8.59 14,-19.48 14,-32.68 0,-13.44 -4.61,-24.39 -13.82,-32.86 -9.21,-8.46 -21.16,-12.7 -35.85,-12.7l-76.93 0 0 91.12z"/>
   <polygon id="6" class="fil0" points="6904.39,28.08 7120.24,28.08 7120.24,63.55 7030.24,63.55 7030.24,278.28 6994.02,278.28 6994.02,63.55 6904.39,63.55 "/>
   <polygon id="7" class="fil0" points="7347.67,278.28 7162.44,278.28 7162.44,28.08 7347.67,28.08 7347.67,63.55 7198.66,63.55 7198.66,131.52 7336.46,131.52 7336.46,166.99 7198.66,166.99 7198.66,242.8 7347.67,242.8 "/>
   <polygon id="8" class="fil0" points="7383.14,28.08 7598.99,28.08 7598.99,63.55 7508.99,63.55 7508.99,278.28 7472.77,278.28 7472.77,63.55 7383.14,63.55 "/>
   <path id="9" class="fil0" d="M5547.3 476.21l0 214.72 34.35 0 0 90 -34.35 0 0 -54.52 -195.69 0 0 54.52 -34.35 0 0 -90c5.47,0 9.46,-0.18 11.95,-0.56 2.49,-0.37 5.54,-1.3 9.15,-2.8 3.61,-1.49 6.41,-3.98 8.4,-7.47 1.99,-3.48 3.73,-8.21 5.23,-14.19 1.24,-4.73 2.3,-10.83 3.17,-18.3 0.87,-7.46 1.56,-16.18 2.05,-26.14 0.5,-9.96 0.88,-19.42 1.12,-28.38 0.25,-8.96 0.44,-19.79 0.56,-32.49 0.13,-12.69 0.19,-22.78 0.19,-30.25 0,-7.46 0,-17.42 0,-29.87 0,-12.45 0,-20.54 0,-24.27l188.22 0zm-165.81 214.72l129.58 0 0 -179.25 -115.76 0c0,83.4 -2.49,136.56 -7.47,159.46 -1.25,6.97 -3.36,13.57 -6.35,19.79z"/>
   <polygon id="10" class="fil0" points="5661.94,670.39 5805.34,476.21 5841.57,476.21 5841.57,726.41 5805.34,726.41 5805.34,532.22 5661.94,726.41 5625.72,726.41 5625.72,476.21 5661.94,476.21 "/>
   <path id="11" class="fil0" d="M6103.35 631.18l38.47 0c-5.98,29.38 -20.23,53.4 -42.76,72.08 -22.53,18.67 -49.86,28 -81.97,28 -37.59,0 -68.28,-12.57 -92.05,-37.71 -23.78,-25.15 -35.67,-55.89 -35.67,-92.24 0,-36.1 11.95,-66.85 35.85,-92.24 23.9,-25.4 54.52,-38.09 91.87,-38.09 31.37,0 58.32,9.15 80.85,27.44 22.53,18.3 36.91,41.89 43.13,70.77l-38.09 0c-5.48,-18.42 -15.87,-33.48 -31.18,-45.18 -15.31,-11.71 -33.3,-17.56 -53.96,-17.56 -26.64,0 -48.61,9.28 -65.92,27.83 -17.3,18.54 -25.95,40.89 -25.95,67.03 0,26.39 8.65,48.73 25.95,67.03 17.31,18.3 39.28,27.45 65.92,27.45 21.65,0 40.14,-6.04 55.45,-18.11 15.31,-12.08 25.33,-27.58 30.06,-46.5z"/>
   <polygon id="12" class="fil0" points="6151.15,476.21 6367,476.21 6367,511.68 6277,511.68 6277,726.41 6240.78,726.41 6240.78,511.68 6151.15,511.68 "/>
   <path id="13" class="fil0" d="M6606.74 726.41l-40.7 0 -28.38 -66.85 -118.76 0 -28 66.85 -40.34 0 108.3 -250.2 39.21 0 108.67 250.2zm-128.83 -206.89l-44.07 104.94 88.88 0 -44.81 -104.94z"/>
   <polygon id="14" class="fil0" points="6825.21,578.9 6825.21,476.21 6861.43,476.21 6861.43,726.41 6825.21,726.41 6825.21,614.38 6681.43,614.38 6681.43,726.41 6645.21,726.41 6645.21,476.21 6681.43,476.21 6681.43,578.9 "/>
   <polygon id="15" class="fil0" points="7177.73,690.93 7177.73,780.93 7143.38,780.93 7143.38,726.41 6928.65,726.41 6928.65,476.21 6964.87,476.21 6964.87,690.93 7106.78,690.93 7106.78,476.21 7143,476.21 7143,690.93 "/>
   <polygon id="16" class="fil0" points="7258.02,670.39 7401.42,476.21 7437.65,476.21 7437.65,726.41 7401.42,726.41 7401.42,532.22 7258.02,726.41 7221.8,726.41 7221.8,476.21 7258.02,476.21 "/>
   <path id="17" class="fil0" d="M7616.53 731.26c-38.09,0 -69.27,-12.51 -93.55,-37.53 -24.27,-25.02 -36.41,-55.83 -36.41,-92.42 0,-36.35 12.14,-67.16 36.41,-92.43 24.28,-25.27 55.46,-37.9 93.55,-37.9 38.34,0 69.65,12.57 93.92,37.71 24.27,25.15 36.41,56.02 36.41,92.62 0,36.59 -12.14,67.4 -36.41,92.42 -24.27,25.02 -55.58,37.53 -93.92,37.53zm0 -35.1c27.88,0 50.48,-9.15 67.78,-27.45 17.3,-18.3 25.95,-40.76 25.95,-67.4 0,-26.64 -8.71,-49.11 -26.14,-67.41 -17.43,-18.3 -39.96,-27.45 -67.59,-27.45 -27.39,0 -49.79,9.15 -67.22,27.45 -17.43,18.3 -26.14,40.77 -26.14,67.41 0,26.39 8.65,48.79 25.95,67.22 17.31,18.42 39.77,27.63 67.41,27.63z"/>
   <polygon id="18" class="fil0" points="7975.41,578.9 7975.41,476.21 8011.63,476.21 8011.63,726.41 7975.41,726.41 7975.41,614.38 7831.63,614.38 7831.63,726.41 7795.41,726.41 7795.41,476.21 7831.63,476.21 7831.63,578.9 "/>
   <polygon id="19" class="fil0" points="8258.85,578.9 8258.85,476.21 8295.07,476.21 8295.07,726.41 8258.85,726.41 8258.85,614.38 8115.07,614.38 8115.07,726.41 8078.85,726.41 8078.85,476.21 8115.07,476.21 8115.07,578.9 "/>
   <path id="20" class="fil0" d="M8473.95 731.26c-38.09,0 -69.27,-12.51 -93.55,-37.53 -24.27,-25.02 -36.41,-55.83 -36.41,-92.42 0,-36.35 12.14,-67.16 36.41,-92.43 24.28,-25.27 55.46,-37.9 93.55,-37.9 38.34,0 69.65,12.57 93.92,37.71 24.27,25.15 36.41,56.02 36.41,92.62 0,36.59 -12.14,67.4 -36.41,92.42 -24.27,25.02 -55.58,37.53 -93.92,37.53zm0 -35.1c27.88,0 50.48,-9.15 67.78,-27.45 17.3,-18.3 25.95,-40.76 25.95,-67.4 0,-26.64 -8.71,-49.11 -26.14,-67.41 -17.43,-18.3 -39.96,-27.45 -67.59,-27.45 -27.39,0 -49.79,9.15 -67.22,27.45 -17.43,18.3 -26.14,40.77 -26.14,67.41 0,26.39 8.65,48.79 25.95,67.22 17.31,18.42 39.77,27.63 67.41,27.63z"/>
   <polygon id="21" class="fil0" points="8689.05,726.41 8652.83,726.41 8652.83,476.21 8824.24,476.21 8824.24,511.68 8689.05,511.68 "/>
   <path id="22" class="fil0" d="M8962.05 731.26c-38.09,0 -69.27,-12.51 -93.55,-37.53 -24.27,-25.02 -36.42,-55.83 -36.42,-92.42 0,-36.35 12.15,-67.16 36.42,-92.43 24.28,-25.27 55.46,-37.9 93.55,-37.9 38.34,0 69.65,12.57 93.92,37.71 24.27,25.15 36.41,56.02 36.41,92.62 0,36.59 -12.14,67.4 -36.41,92.42 -24.27,25.02 -55.58,37.53 -93.92,37.53zm0 -35.1c27.88,0 50.48,-9.15 67.78,-27.45 17.3,-18.3 25.95,-40.76 25.95,-67.4 0,-26.64 -8.71,-49.11 -26.14,-67.41 -17.43,-18.3 -39.96,-27.45 -67.59,-27.45 -27.39,0 -49.79,9.15 -67.22,27.45 -17.43,18.3 -26.14,40.77 -26.14,67.41 0,26.39 8.65,48.79 25.95,67.22 17.31,18.42 39.77,27.63 67.41,27.63z"/>
   <path id="23" class="fil0" d="M5456.55 1179.39c-38.09,0 -69.27,-12.51 -93.55,-37.53 -24.27,-25.02 -36.41,-55.83 -36.41,-92.42 0,-36.35 12.14,-67.16 36.41,-92.43 24.28,-25.27 55.46,-37.9 93.55,-37.9 38.34,0 69.65,12.57 93.92,37.71 24.27,25.15 36.41,56.02 36.41,92.62 0,36.59 -12.14,67.4 -36.41,92.42 -24.27,25.02 -55.58,37.53 -93.92,37.53zm0 -35.1c27.88,0 50.48,-9.15 67.78,-27.45 17.3,-18.3 25.95,-40.76 25.95,-67.4 0,-26.64 -8.71,-49.11 -26.14,-67.41 -17.43,-18.3 -39.96,-27.45 -67.59,-27.45 -27.39,0 -49.79,9.15 -67.22,27.45 -17.43,18.3 -26.14,40.77 -26.14,67.41 0,26.39 8.65,48.79 25.95,67.22 17.31,18.42 39.77,27.63 67.41,27.63z"/>
   <path id="24" class="fil0" d="M5671.65 1019.94l82.91 0c22.65,0 41.76,7.34 57.32,22.03 15.56,14.69 23.34,32.99 23.34,54.89 0,22.16 -7.78,40.65 -23.34,55.46 -15.56,14.81 -34.67,22.22 -57.32,22.22l-119.13 0 0 -250.2 175.14 0 0 35.47 -138.92 0 0 60.13zm0 119.12l81.41 0c12.95,0 23.78,-3.92 32.49,-11.76 8.72,-7.84 13.07,-17.99 13.07,-30.44 0,-12.19 -4.29,-22.15 -12.88,-29.87 -8.59,-7.72 -19.48,-11.58 -32.68,-11.58l-81.41 0 0 83.65z"/>
   <path id="25" class="fil0" d="M5971.9 1077.82l67.97 -154.61 37.72 0 -95.61 215.11c-5.22,11.7 -12.75,20.66 -22.59,26.88 -9.83,6.23 -20.85,9.34 -33.05,9.34l-42.2 0 0 -35.85 42.2 0c12.7,0 21.41,-5.35 26.14,-16.06l1.5 -3.73 -105.69 -194.56 41.46 0 82.15 153.48z"/>
   <path id="26" class="fil0" d="M6273.64 1043.84l0 -119.5 36.22 0 0 250.2 -36.22 0 0 -95.23 -114.65 0c-16.18,0 -29,-4.79 -38.46,-14.37 -9.46,-9.59 -14.19,-22.47 -14.19,-38.66l0 -101.94 36.22 0 0 98.58c0,6.48 1.81,11.58 5.42,15.31 3.61,3.74 8.77,5.61 15.5,5.61l110.16 0z"/>
   <polygon id="27" class="fil0" points="6562.31,1174.54 6377.08,1174.54 6377.08,924.34 6562.31,924.34 6562.31,959.81 6413.3,959.81 6413.3,1027.78 6551.1,1027.78 6551.1,1063.25 6413.3,1063.25 6413.3,1139.06 6562.31,1139.06 "/>
   <polygon id="28" class="fil0" points="6797.2,1027.03 6797.2,924.34 6833.42,924.34 6833.42,1174.54 6797.2,1174.54 6797.2,1062.51 6653.42,1062.51 6653.42,1174.54 6617.2,1174.54 6617.2,924.34 6653.42,924.34 6653.42,1027.03 "/>
   <polygon id="29" class="fil0" points="6936.86,1118.52 7080.26,924.34 7116.49,924.34 7116.49,1174.54 7080.26,1174.54 7080.26,980.35 6936.86,1174.54 6900.64,1174.54 6900.64,924.34 6936.86,924.34 "/>
   <path id="30" class="fil0" d="M7391.72 924.34l0 250.2 -36.23 0 0 -94.11 -119.5 0c-12.45,0 -18.67,5.6 -18.67,16.81l0 77.3 -36.22 0 0 -84.77c0,-23.9 9.33,-38.22 28,-42.95l0 -0.74c-16.43,-11.95 -24.64,-29.26 -24.64,-51.91 0,-21.66 7.59,-38.71 22.78,-51.16 15.18,-12.45 34.73,-18.67 58.63,-18.67l125.85 0zm-123.99 120.62l87.76 0 0 -85.15 -87.76 0c-13.19,0 -24.27,3.99 -33.23,11.95 -8.97,7.97 -13.45,18.3 -13.45,31 0,12.69 4.42,22.9 13.26,30.62 8.84,7.72 19.98,11.58 33.42,11.58z"/>
   <polygon class="fil1" points="4824.57,1188.77 4791.81,1188.77 4791.81,0 4824.57,0 "/>
   <g>
    <polygon class="fil2" points="42.15,982.59 124,982.59 124,1175.76 165.47,1175.76 165.47,982.59 247.33,982.59 247.33,941.12 42.15,941.12 "/>
    <path class="fil2" d="M495.06 1074.27l-1.09 0c0,19.64 -5.46,34.92 -16.37,46.92 -10.91,12.01 -26.19,18.56 -44.74,18.56 -17.47,0 -32.75,-6.55 -43.66,-18.56 -10.91,-12 -16.37,-28.37 -16.37,-46.92l0 -133.15 -41.47 0 0 134.24c0,31.65 9.83,57.84 28.38,76.39 18.55,19.65 43.65,28.38 74.2,28.38 30.56,0 55.67,-9.83 74.22,-28.38 18.55,-19.64 28.38,-44.74 28.38,-76.39l0 -134.24 -41.48 0 0 133.15z"/>
    <path class="fil2" d="M775.54 1046.98l-85.12 -20.73c-6.55,-1.1 -10.92,-4.37 -14.19,-8.73 -3.27,-4.37 -4.37,-8.73 -4.37,-14.2 0,-5.45 2.18,-10.91 6.55,-15.27 4.37,-4.37 9.83,-6.55 17.46,-6.55l115.68 0 0 -40.38 -117.86 0c-20.73,0 -37.11,6.55 -49.11,18.56 -12.01,13.09 -17.46,27.28 -17.46,44.74 0,14.18 4.36,27.28 13.09,38.2 8.74,12 20.74,19.64 37.11,22.91l85.12 20.74c6.55,1.09 10.92,4.37 14.2,8.73 3.27,4.37 5.45,9.82 5.45,15.28 0,6.55 -2.18,12.01 -6.55,16.37 -4.37,4.37 -10.91,7.64 -18.55,7.64l-121.14 0 0 40.38 122.23 0c21.83,0 38.19,-6.55 50.2,-19.64 12,-13.1 18.55,-28.38 18.55,-46.93 0,-14.19 -4.36,-27.29 -13.09,-39.29 -8.74,-9.83 -21.83,-18.55 -38.2,-21.83z"/>
    <path class="fil2" d="M1080.03 1074.27l-1.1 0c0,19.64 -5.45,34.92 -16.36,46.92 -10.92,12.01 -26.2,18.56 -44.75,18.56 -17.46,0 -32.74,-6.55 -43.65,-18.56 -10.92,-12 -16.37,-28.37 -16.37,-46.92l0 -133.15 -41.48 0 0 134.24c0,31.65 9.83,57.84 28.38,76.39 18.55,19.65 43.66,28.38 74.21,28.38 30.56,0 55.66,-9.83 74.21,-28.38 18.56,-19.64 28.38,-44.74 28.38,-76.39l0 -134.24 -41.47 0 0 133.15z"/>
    <path class="fil2" d="M1369.24 1042.62c-7.64,6.54 -16.37,9.81 -28.38,9.81l-74.21 0 0 -69.84 74.21 0c10.92,0 20.74,3.27 28.38,9.82 7.63,6.55 10.91,15.28 10.91,25.11 0,9.82 -3.28,18.55 -10.91,25.1zm30.56 14.18c15.28,-12 22.91,-28.37 22.91,-50.2 0,-20.74 -7.63,-36.01 -21.83,-48.02 -14.18,-12 -33.82,-17.46 -56.74,-17.46l-118.96 0 0 234.64 41.47 0 0 -84.03 101.5 0c10.91,0 16.37,4.36 16.37,14.19l0 68.75 41.47 0 0 -77.48c1.09,-21.83 -7.64,-36.02 -26.19,-40.39z"/>
    <path class="fil2" d="M1831.97 1074.27l-1.09 0c0,19.64 -5.46,34.92 -16.37,46.92 -10.91,12.01 -26.19,18.56 -44.74,18.56 -17.47,0 -32.74,-6.55 -43.66,-18.56 -10.91,-12 -16.37,-28.37 -16.37,-46.92l0 -133.15 -41.47 0 0 134.24c0,31.65 9.83,57.84 28.38,76.39 18.55,19.65 43.65,28.38 74.21,28.38 30.55,0 55.66,-9.83 74.21,-28.38 18.55,-19.64 28.38,-44.74 28.38,-76.39l0 -134.24 -41.48 0 0 133.15z"/>
    <polygon class="fil2" points="2150.65,1107.01 2026.24,941.12 1977.13,941.12 1977.13,1175.76 2019.69,1175.76 2019.69,998.96 2150.65,1175.76 2192.12,1175.76 2192.12,941.12 2150.65,941.12 "/>
    <polygon class="fil2" points="2303.44,1175.76 2344.91,1175.76 2344.91,941.12 2303.44,941.12 "/>
    <polygon class="fil2" points="2552.27,1124.47 2474.78,941.12 2428.94,941.12 2528.26,1175.76 2574.1,1175.76 2673.41,941.12 2628.66,941.12 "/>
    <polygon class="fil2" points="2755.26,1175.76 2932.06,1175.76 2932.06,1134.29 2796.73,1134.29 2796.73,1075.36 2918.96,1075.36 2918.96,1036.07 2796.73,1036.07 2796.73,982.59 2932.06,982.59 2932.06,941.12 2755.26,941.12 "/>
    <path class="fil2" d="M3177.61 1042.62c-7.63,6.54 -16.36,9.81 -28.37,9.81l-74.21 0 0 -69.84 74.21 0c10.91,0 20.74,3.27 28.37,9.82 7.64,6.55 10.92,15.28 10.92,25.11 -1.1,9.82 -4.37,18.55 -10.92,25.1zm29.47 14.18c15.28,-12 22.92,-28.37 22.92,-50.2 0,-20.74 -7.64,-36.01 -21.83,-48.02 -14.19,-12 -33.83,-17.46 -56.75,-17.46l-118.96 0 0 234.64 41.48 0 0 -84.03 101.49 0c10.92,0 16.37,4.36 16.37,14.19l0 68.75 41.47 0 0 -77.48c1.1,-21.83 -7.63,-36.02 -26.19,-40.39z"/>
    <path class="fil2" d="M3474.46 1046.98l-85.12 -20.73c-6.55,-1.1 -10.91,-4.37 -14.19,-8.73 -3.27,-4.37 -4.37,-8.73 -4.37,-14.2 0,-5.45 2.19,-10.91 6.55,-15.27 4.37,-4.37 9.83,-6.55 17.46,-6.55l115.69 0 0 -40.38 -117.87 0c-20.73,0 -37.11,6.55 -49.11,18.56 -12,13.09 -17.46,27.28 -17.46,44.74 0,14.18 4.37,27.28 13.1,38.2 8.73,12 20.73,19.64 37.1,22.91l85.13 20.74c6.54,1.09 10.91,4.37 14.19,8.73 3.27,4.37 5.45,9.82 5.45,15.28 0,6.55 -2.18,12.01 -6.55,16.37 -4.36,4.37 -10.91,7.64 -18.55,7.64l-122.23 0 0 40.38 123.32 0c21.83,0 38.2,-6.55 50.21,-19.64 12,-13.1 18.55,-28.38 18.55,-46.93 0,-14.19 -4.37,-27.29 -13.1,-39.29 -8.73,-9.83 -21.83,-18.55 -38.2,-21.83z"/>
    <polygon class="fil2" points="3621.79,1175.76 3663.27,1175.76 3663.27,941.12 3621.79,941.12 "/>
    <polygon class="fil2" points="3753.85,982.59 3835.7,982.59 3835.7,1175.76 3877.18,1175.76 3877.18,982.59 3959.03,982.59 3959.03,941.12 3753.85,941.12 "/>
    <polygon class="fil2" points="4140.19,1041.53 4072.52,941.12 4023.41,941.12 4118.36,1080.82 4118.36,1175.77 4160.92,1175.77 4160.92,1079.72 4256.97,941.12 4207.86,941.12 "/>
    <polygon class="fil2" points="460.96,733.16 462.03,161.23 745.86,161.23 745.86,8.64 -0,8.64 -0,161.23 283.83,161.23 283.83,733.16 "/>
    <path class="fil2" d="M4126.25 405.58l-402.28 0 0 -244.35 402.28 0 0 244.35zm-36.28 -396.94l-543.13 0 -1.06 723.46 178.19 0 0 -177.13 364.93 0c116.31,0 210.21,-93.9 210.21,-210.21l0 -125.91c1.07,-116.3 -92.84,-210.21 -209.14,-210.21z"/>
    <path class="fil2" d="M2002.84 733.16l462.03 0 0 -152.58 -494.04 0 0 -419.35 494.04 0 0 -152.59 -462.03 0c-116.31,0 -210.22,93.9 -210.22,210.21l0 304.11c0,116.31 93.91,210.2 210.22,210.2z"/>
    <path class="fil2" d="M1338.42 732.1l383.66 -723.46 -182.75 0 -233.89 441.03 -259.51 -441.03 -182.76 0 279.48 482.98c22.39,38.68 62.82,62.42 106.5,62.52l0.89 0 -94.37 177.96 182.75 0z"/>
    <path class="fil2" d="M2964.82 554.14l0.89 0 -94.37 177.96 182.75 0 383.66 -723.46 -182.75 0 -233.89 441.04 -259.52 -441.04 -182.75 0 279.48 482.98c22.38,38.68 62.82,62.42 106.5,62.52z"/>
    <polygon class="fil2" points="42.15,982.59 124,982.59 124,1175.76 165.47,1175.76 165.47,982.59 247.33,982.59 247.33,941.12 42.15,941.12 "/>
    <polygon class="fil2" points="42.15,982.59 124,982.59 124,1175.76 165.47,1175.76 165.47,982.59 247.33,982.59 247.33,941.12 42.15,941.12 "/>
   </g>
  </g>
 </g>
</svg>
